<?xml version="1.0" encoding="UTF-8"?>
<svg id="Layer_2" data-name="Layer 2" xmlns="http://www.w3.org/2000/svg" viewBox="0 0 135.6 137.59">
  <defs>
    <style>
      .cls-1 {
        fill: #edd3e6;
      }

      .cls-2 {
        fill: #1c191d;
      }

      .cls-3 {
        fill: #1f1b20;
      }

      .cls-4 {
        fill: #fcd7d4;
      }

      .cls-5 {
        fill: #7cc6ed;
      }

      .cls-6 {
        fill: #010101;
      }

      .cls-7 {
        fill: #030303;
      }

      .cls-8 {
        fill: #e5707d;
      }

      .cls-9 {
        fill: #e1f2fb;
      }

      .cls-10 {
        fill: #1f1d1f;
      }

      .cls-11 {
        fill: #fcf6f3;
      }

      .cls-12 {
        fill: #9ed4f2;
      }

      .cls-13 {
        fill: #f5919e;
      }

      .cls-14 {
        fill: #ed2325;
      }

      .cls-15 {
        fill: #010201;
      }

      .cls-16 {
        fill: #90cef1;
      }

      .cls-17 {
        fill: #cdbeda;
      }

      .cls-18 {
        fill: #221f22;
      }

      .cls-19 {
        fill: #020202;
      }

      .cls-20 {
        fill: #bba5ce;
      }

      .cls-21 {
        fill: #050504;
      }

      .cls-22 {
        fill: #e0f0f9;
      }

      .cls-23 {
        fill: #080807;
      }

      .cls-24 {
        fill: #080808;
      }

      .cls-25 {
        fill: #ee2325;
      }

      .cls-26 {
        fill: #f37165;
      }

      .cls-27 {
        fill: #90cff1;
      }

      .cls-28 {
        fill: #fcd2cf;
      }

      .cls-29 {
        fill: #fcfcfc;
      }

      .cls-30 {
        fill: #9bd2f1;
      }

      .cls-31 {
        fill: #fff8f4;
      }
    </style>
  </defs>
  <g id="Layer_1-2" data-name="Layer 1">
    <g>
      <g>
        <path class="cls-7" d="M98.75,44.75c6.99,4.23,14.41,9.19,20.1,15.23s8.56,13.13,10.25,21.06c.56,6.93.56,15.22,0,22.19-.26,3.22-1,6.34-1.65,9.49-.88-.38-1.62-1.01-2.55-1.33-3.19-1.1-8.13-.91-11.14.67l-.75.13c-5.49-.5-11.2-.76-16.57-.96-3.15-.03-6.95-.94-10.17-1.3-4.2-.47-9.37-1.27-13.51-1.18-.34,0-1.89.4-1.89-.07V40.95c9.44-.09,18.83,1.21,27.88,3.79Z"/>
        <path class="cls-7" d="M67.41,40.95l.31.2c.5,6.56,1.02,13.1,1.59,19.62l.25.64v24.41c-.04.22-.08.39-.17.2.06,3.92-.27,7.81-.98,11.67l.21.12c-.17,1.81-.3,3.62-.4,5.43l-.3.22c-.06,1.42-.14,2.86-.25,4.32.15.42.07.74-.24.96-7.47-.04-18.21,1.58-25.73,2.8-4.55.05-8.99.39-13.49,1.26l-.69-.27c-2.83-1.8-6.97-2.21-10.23-1.65-.85.16-.93.12-1.41-.52-1.57-2.11-3.02-7.9-3.41-10.58-1.67-11.63,1.83-24.47,8.24-34.32,6.46-9.93,16.73-18.47,27.75-22.37,6.12-1.24,12.71-2.21,18.97-2.14Z"/>
        <path class="cls-7" d="M31.78,127.23c1.73-3.93,1.21-8.27-1.32-11.71,6.98-1.95,14.19-3.04,21.38-3.94,11.39-1.43,21-1.77,32.46-.49,8.63.96,17.3,2.14,25.67,4.44-1.59,2.29-2.5,4.84-2.32,7.67.04.68.3,2.25.5,2.88-.03.12-.06.24-.11.35-.47.97-6.03,3.12-7.29,3.53-5.19,1.69-10.72,1.98-16.07,1.89-1.31.26-2.62.58-3.91.94-.77.24-2.78.41-1.65-.44l.06-.37c1.73-.76,5.38-2.5,6.02-4.35.96-2.82.93-6.3-.52-8.96-2.6-4.75-11.09-4.99-15.88-4.95-6.85.06-14.48,1.8-14.22,10.16.18,5.77,3.67,7.01,8.4,8.41l.15.39c.65.26.5.65-.17.67-5.78-.99-11.62-1.66-17.52-2.02-3.67-.31-7.22-.97-10.74-2-.65-.19-2.06-.65-2.59-1.02s-.53-.41-.33-1.07Z"/>
        <path class="cls-7" d="M48.44,43.1c-.95.9-2.2,1.02-3.31,1.56-16.71,8.14-29.38,23.22-32.14,41.93-.92,6.22-1.02,10.06.39,16.23.42,1.84,1.88,6.46,3.07,7.82.27.3.42.31.81.27-.51.09-1.48.39-1.98.58-.83.32-1.5.91-2.31,1.23-.34-2.2-1-4.33-1.3-6.54-.53-3.94-.43-7.74-.51-11.7-.24-11.1-.59-23.72,6.06-33.19,7.88-11.21,18.15-15.55,31.21-18.19Z"/>
        <path class="cls-7" d="M108.16,126.07c.58,1.84,2.13,3.91,3.46,5.28-2,.52-4.03,1.07-6.07,1.44-8.94,1.61-18.15,1.47-27.16,1.54-6.27.05-12.55.06-18.82,0-7.03-.07-14.22-.05-21.25-1.02-3.21-.44-6.39-1.08-9.51-1.96,1.16-1.21,2.28-2.57,2.97-4.12-.11.65.69.87,1.16,1.07,6.5,2.83,16.84,2.88,24,3.72,1.94.23,3.99.81,5.95.99.42.04.52.07.24-.33l.51-.2c4.77,1.06,10.01.84,14.79-.27l.71.14-.25.33c1.89.03,4.02-.95,5.77-1.16,1.25-.15,2.83.08,4.14.01,5.44-.29,10.05-.88,15.03-3.11,1.5-.67,3.01-1.38,4.34-2.34Z"/>
        <path class="cls-7" d="M17.92,123.6l-.15-.49.94-1.65c1.14-2.12-.98-2.5-1.47-.29-.22.39-.45.67-.8.29-.53-.93-1.16-2.15-1.56-3.14-.18-.43-1.02-2.79-1.01-3.05.06-1.53,4.58-2.5,5.78-2.56,8-.43,13.77,7.34,9.68,14.63-.46.81-2.31,3.17-3.33,2.96-.62-.13-3.21-1.66-3.84-2.11-1.84-1.3-2.96-2.79-4.24-4.59Z"/>
        <path class="cls-7" d="M124.82,119.81l-.4.07c-.91-1.05-1.96-1.84-3.15-2.38-1.47,1.04,1.76,2.85,2.71,3.16l.19.3c-1.82,3.12-5.23,6.83-8.43,8.65-1.51.86-1.75.96-3.12-.31-6.23-5.78-1.7-16.01,6.52-16.58,1.61-.11,6.99.51,7.42,2.45.13.58-1.38,3.91-1.74,4.64Z"/>
        <path class="cls-7" d="M74.34,21.98c2.01,1.94,3.05,4.76,3.69,7.52.19.84.78,3.63.48,4.22-.05.11-.13.2-.21.3-1.03-.12-2.77-.33-3.71-.33h-4.04c.06-.41-.1-1.02.02-1.38.1-.29.67-.32.96-.52,2.28-1.59.59-5.61-2.3-4.45-1.99.8-2.01,3.55-.23,4.52.19.11.68.17.7.2.12.13-.04,1.32.02,1.63-2.92.01-6.02.07-8.91.49-.05-.16-.09-.31-.1-.47-.13-1.25,1.69-4.99,2.39-6.29,1.15-2.14,2.63-4.61,4.64-5.94,2.73-.7,3.97-.53,6.6.49Z"/>
        <path class="cls-7" d="M129.11,81.04c-1.56-4.57-2.87-9.29-5.14-13.59-4.83-9.17-16.21-16.59-24.67-22.18-.23-.15-.45-.24-.55-.52,9.48,2.7,16.28,6.44,22.6,14.11,5.8,7.05,7.03,13.24,7.76,22.18Z"/>
        <path class="cls-7" d="M80.11,26.11c1.47,2.04,1.85,4.79,2.15,7.24.18,1.03-.1,1.42-.83,1.17-1.02-.19-2.11-.37-3.13-.49-.13-3.31-1.03-7.19-2.74-10.05-.41-.68-1.17-1.17-1.22-1.99,1.51.59,5.16,2.65,5.77,4.12Z"/>
        <path class="cls-7" d="M67.74,21.49c-3.33,3.64-5.7,7.9-6.93,12.7-.59.09-1.22.22-1.81.33-.3.09-.53.05-.67-.11-.46-.45,1.55-7.91,2.49-8.8,2.07-2.11,3.92-3.36,6.93-4.12Z"/>
        <path class="cls-7" d="M78.13,36.17c.27.06.19,1.64.1,1.64l-3.4-.16c-4.87.03-10.09.43-14.85.33l-1.56.06c-.22-.71-.26-1.2.57-1.38,6.27-1.21,12.89-1.33,19.14-.49Z"/>
        <path class="cls-7" d="M69.56,40.95v20.46c-.27-.12-.44-.27-.49-.58-.16-.9-.23-2.17-.33-3.13-.55-5.06-.88-10.12-1.15-15.18-.03-.52-.25-1.02-.17-1.56.71,0,1.43,0,2.14,0Z"/>
        <path class="cls-7" d="M113.77,112.05c-1.11.58-2,1.57-3.02,2.27-2.24-.58-4.45-1.21-6.71-1.7-2.52-.54-5.07-.91-7.59-1.4.75,0,1.42-.17,2.06-.17,5.1-.03,10.21.39,15.27,1Z"/>
        <path class="cls-7" d="M69.56,85.82v22.93c-.66.33-1.38,0-2.14,0,.04-1.75.01-3.59.49-5.28.42-.27.61.27.66.66-.04-2.09-.02-4.17.07-6.25l-.24-.19c.29-3.77.51-7.54.83-11.31.03-.31-.19-.66.33-.57Z"/>
        <path class="cls-7" d="M60.81,25.61c-.76,2.74-1.99,5.45-2.15,8.33-.02.31-.14.67.34.58-1.06.2-2.16.66-3.23.81-.27.04-.44.12-.39-.23.16-1.32,1.58-4.25,2.28-5.48.96-1.69,1.83-2.65,3.16-4.01Z"/>
        <path class="cls-7" d="M41.68,111.56c-4.04.66-8.04,1.75-12,2.77-.23,0-1.76-1.5-2.19-1.78,2.31-.17,4.54-.78,6.85-.99.84-.07,1.95-.15,2.79-.17,1.48-.05,3.09-.05,4.54.17Z"/>
        <path class="cls-7" d="M80.11,26.11c1.07.93,1.97,2.28,2.67,3.52s2.13,4.12,2.27,5.48c.04.36-.12.24-.39.22-1.04-.08-2.2-.62-3.23-.81.56.02.47.11.5-.41.12-2.1-1-6.02-1.82-8Z"/>
        <path class="cls-7" d="M78.13,36.17c2.09.28,4.48.49,6.47,1.2.74.27,1.24.33,1.29,1.27l-11.05-.99c1.1,0,2.2,0,3.3,0-.23-.46-.26-1.02,0-1.48Z"/>
        <path class="cls-7" d="M69.56,108.75c0-7.64,0-15.29,0-22.93,0-8.14,0-16.28,0-24.41v-20.46,67.8Z"/>
        <path class="cls-7" d="M124.82,119.81c-.2.41-.43.76-.66,1.15-.77.33-3.45-1.95-3.6-2.43s.06-1.21.58-1.34c.88-.23,3.02,2.01,3.67,2.61Z"/>
        <path class="cls-7" d="M69.67,28.12c2.48-.75,2.8,3.57.17,3.07-1.71-.33-1.47-2.67-.17-3.07Z"/>
        <path class="cls-7" d="M17.92,123.6c-.5-.7-1.05-1.4-1.48-2.14.62-.1.71-1.19,1.08-1.64.56-.68,1.43-.65,1.81.16.44.97-1.1,2.67-1.4,3.62Z"/>
        <path class="cls-7" d="M59,36.67c-.56.24-.28.85-.33,1.32.44,0,.88,0,1.32,0l-5.44.66s.12-.6.19-.71c.44-.64,3.38-1.1,4.26-1.27Z"/>
        <path class="cls-7" d="M92.28,86.7c7.29-.69,14.18,6.52,10.67,13.64-2.6,5.29-9.51,3.53-14.1,2.23-8.35-2.35-3.28-15.24,3.43-15.87Z"/>
        <path class="cls-7" d="M95.09,80.92c3.4-.19,7.78,1.55,10.34,3.75,2.07,1.77,6.17,7.08,5.28,9.91-.29.93-1.01.8-1.57,1.07-.3.14-.46.61-.95.71-1.74.36-1.62-1.92-1.91-2.97-.76-2.77-2.97-5-5.25-6.63-3.42-2.44-6.66-3.26-10.65-1.45-1.02.46-1.71,2.06-2.95,1.36-1.45-.82-.09-2.36.76-3.05,1.24-.99,5.32-2.6,6.88-2.69Z"/>
        <path class="cls-7" d="M95.24,57.98c.67-.2,2.99.54,3.67.88,1.1.55,2.68,1.9,3.37,2.9.41.59,2.24,3.79.51,3.63-.67-.06-1.37-2.2-1.91-2.89-.65-.83-2.08-2-3.04-2.4-.68-.28-2.47-.5-2.82-.81-.4-.36-.34-1.14.21-1.3Z"/>
        <path class="cls-7" d="M118.4,107.26c.51.37,3.88-2.59,4.57-2.92s1.15.23.62.79c-1.02.55-4.17,3.32-5.12,3.31-.42,0-.5-.16-.71-.45-.4-.54-1.55-3.8-1.76-3.85-.7.41-1.35.97-1.97,1.49-.47.39-2.38,2.49-2.89,2.14-.02-.01-.11-.36-.1-.41.05-.64,4.46-4.39,5.11-4.33.37.03.62.4.8.67.41.61,1.19,3.37,1.47,3.57Z"/>
        <path class="cls-7" d="M72.98,81.23c.98-.14,1.4,1.78.13,1.78-1.06,0-1.18-1.63-.13-1.78Z"/>
        <path class="cls-7" d="M72.73,52.79c-1.08-1.07,1.37-2.31,1.46-.7.05.93-.95,1.21-1.46.7Z"/>
        <path class="cls-7" d="M47.09,86.37c7.11-.43,12.36,11.9,6.03,15.26-1.48.79-7.81,1.99-9.56,2-5.83.02-8.16-5.81-6.28-10.75,1.68-4.44,5.21-6.23,9.82-6.51Z"/>
        <path class="cls-7" d="M43.63,80.92c2.08-.06,5.58,1.3,7.27,2.53.81.58,1.84,1.57.69,2.47-1.03.81-1.93-.34-2.79-.7-1.57-.67-3.15-1.04-4.88-.86-4.14.44-9.72,5.15-10.78,9.18-.23.88-.04,1.92-.79,2.51-.99.77-1.32,0-2.08-.4-.55-.29-1.23-.14-1.43-1.04-.66-2.94,2.61-7.53,4.66-9.45,2.54-2.38,6.63-4.15,10.12-4.24Z"/>
        <path class="cls-7" d="M44.78,58.64c.91-.07,1.57.77.85,1.36-.35.29-1.73.4-2.35.62-1.29.47-2.83,1.69-3.65,2.78-.53.7-1.17,2.82-1.97,2.75-1.62-.13.39-3.38.88-4,1.33-1.69,4.07-3.36,6.23-3.52Z"/>
        <path class="cls-7" d="M29.3,107.76c-.11.08-.5,0-.65-.08-1.09-.93-2.09-2-3.22-2.88-.18-.14-.92-.77-1.07-.66l-1.73,4.13c-.65.66-3.04-1.12-3.7-1.59-.45-.32-1.79-1.24-2.08-1.55-.47-.51-.09-1.07.42-.93.72.2,3,2.36,4.06,2.88.2.1.37.22.61.21.77-.75,1.25-4.37,2.47-4.27.66.06,4.52,3.38,4.88,4.03.11.19.14.62,0,.71Z"/>
        <path class="cls-7" d="M68.4,97.7l.49-.25v10.64s-.99,0-.99,0c-.12-.66.14-1.27.17-1.89.01-.29-.21-.62-.17-.98.03-.34.35-.61.34-1.01s-.32-.6-.34-.74c-.21-1.23.38-4.32.49-5.77Z"/>
        <path class="cls-7" d="M67.7,51.55c1.08,1.07-1.37,2.31-1.46.7-.05-.93.95-1.21,1.46-.7Z"/>
        <path class="cls-7" d="M66.79,82.81c-.64-.66.19-2.16,1.11-1.35s-.44,2.03-1.11,1.35Z"/>
        <path class="cls-7" d="M79.12,132.34c-3.77,1.17-8.49,1.25-12.45.99-1.15-.08-2.44-.33-3.55-.66-1.19-.35-4.6-1.53-5.56-2.11-4.14-2.49-4.22-9.82-1.29-13.23,1.92-2.23,6.53-3.59,9.4-3.8,5.17-.37,15.09-.42,18.63,3.98,2.11,2.62,2.43,7.59,1.05,10.59-.68,1.48-4.65,3.75-6.23,4.24Z"/>
        <path class="cls-7" d="M22,120c1.28-.25,1.6,2.48,1.67,3.38.15,2.01-1.72,2.37-2.11.46-.12-.59-.44-2.63-.34-3.11.07-.36.43-.65.78-.72Z"/>
        <path class="cls-7" d="M26.46,118.68c1.48-.42,4.13,3.92,1.61,3.78-.92-.05-3.33-3.29-1.61-3.78Z"/>
        <path class="cls-7" d="M114.88,120.5c.12.22.05.88,0,1.16-.06.36-.98,3.04-1.13,3.32-.51.88-1.96.61-1.79-.79.03-.21,1.14-3.4,1.24-3.55.37-.56,1.39-.65,1.69-.14Z"/>
        <path class="cls-7" d="M117.83,119.5c.68-.23,1.18,0,1.46.63.15.35.76,2.41.76,2.72,0,.82-.74,1.37-1.51.99-.41-.2-1.63-4.03-.71-4.35Z"/>
        <path class="cls-7" d="M90.18,98.36c.28.04.67.45.99.58,1.04.41,2.33.32,3.3-.25h.6s4.04,2.01,4.04,2.01c.35.23.1.44-.19.62-1.75.61-4.31.11-6.14-.21-1.67-.3-4.15-.63-5.24-1.93.18-.66,2.17-1.48,2.64-.82Z"/>
        <path class="cls-7" d="M98.92,101.33c.31-.46.12-.25-.16-.41-1.4-.79-2.94-1.34-4.29-2.23.63-.37,1.21-1.27,1.73-1.77.35-.03,4.11,1.94,4.39,2.34.49.7-1.02,1.85-1.66,2.07Z"/>
        <path class="cls-7" d="M96.17,90.33c1.01-1.1,3.72.97,3.9,2.02.22,1.23-.72,2.04-1.9,1.57-.19-.08-1.77-1.44-1.97-1.66-.5-.54-.52-1.39-.03-1.93Z"/>
        <path class="cls-7" d="M87.54,99.19c-.56-.67-1.09-2.01-.8-2.86.13-.39,2.11-.44,2.61-.43.02.91.42,1.69.83,2.47-.69-.11-1.95.59-2.64.82Z"/>
        <path class="cls-7" d="M49.43,97.54l.56-.63c.51.02,3.39.55,3.48.71l-.08.41c-.71,1.81-2.52,2.03-4.25,2.43-2.09.48-5.89,1.28-7.79.38-.08-.1-.19-.26-.14-.33.34-.46,2.47-2.59,2.92-2.58l.35.27c.35,0,.86.38,1.28.46,1.67.29,2.38-.39,3.67-1.12Z"/>
        <path class="cls-7" d="M41.35,100.84c-.73-.35-2.44-1.87-1.74-2.64.24-.26,3.35-1.98,3.63-1.98l1.24,1.98c-.52,0-.96.59-1.4.83l-1.74,1.81Z"/>
        <path class="cls-7" d="M53.39,98.03c.06-.54-.11-.19-.38-.23-.88-.12-2.12-.52-2.89-.56-.39-.02-.43.15-.69.3.5-.91.8-1.7.98-2.73.19-.14,3.15.11,3.24.25.18,1,.11,2.03-.26,2.98Z"/>
        <path class="cls-7" d="M47.4,88.83c1.34-.31,3.61.76,2.69,2.37-.8,1.41-3.71.31-3.63-1.15.03-.46.46-1.11.94-1.21Z"/>
        <path class="cls-7" d="M78.63,129.87c-4.33.61-8.96.72-13.21-.63-1.27-.4-8.34-4.93-8.78-5.98-.11-.27-.08-.56.05-.82.34-1.92.37-2.94,2.07-4.29,4.41-3.51,18.11-3.48,22.67-.24,2.88,2.05,3.19,6.32,1.16,9.06-1.13,1.53-2.32,2.17-3.96,2.89Z"/>
        <path class="cls-7" d="M78.63,129.87c-5.29,2.31-14.28,2.06-19.29-1.09-1.9-1.19-3.11-3.32-3-5.59.02-.47.33-.71.34-.75-.02.6.73,1.21,1.16,1.56,1.35,1.1,6.21,4.46,7.75,4.95,2.11.68,6.09,1.09,8.31,1.06,1.51-.02,3.23-.61,4.72-.15Z"/>
        <path class="cls-7" d="M3.98,5.76c-7.09,8.46,2.74,20.91,12.86,15,.44-.26,1.01-.65,1.4-.9,1.25-.98,1.37-1.4,1.44-1.5.33-.51.91-1.92,1.09-2.41C24.78,5.3,11.15-2.79,3.98,5.76Z"/>
        <path class="cls-7" d="M108.1,44.55c-.85-.4-3.11-1.22-3.74-1.54-.56-.28-.83-.34-2.24-.76-4.65-1.48-9.43-2.51-14.24-3.3-.85-10.89-10.72-23.63-22.78-18.87-7.4,2.92-11.67,11.3-12.56,18.86-4.84.81-9.64,1.86-14.32,3.32-.91.25-1.54.44-2.15.74-.64.32-2.98,1.18-3.85,1.59-11.15,5.2-20.5,15.02-22.99,27.32-1.66,8.18-1.61,17.5-1.37,25.86.33,11.84,3.14,28.23,14.58,34.42,8.2,4.43,20.24,5.13,29.39,5.26,12.18.17,24.62.17,36.8,0,7.06-.1,14.29-.53,21.22-2.2,17.6-4.25,21.96-19.71,22.57-35.99.47-12.73,1.19-28.67-6.3-39.56-4.65-6.76-10.57-11.7-18-15.15Z"/>
        <path class="cls-7" d="M121.41,2.44c-5.57,2.53-7.32,10.13-3.69,14.96.81,1.12.87,1.15,1.4,1.72.12.13,1.2.88,1.57,1.08,5.15,2.89,11.85.82,14.1-4.71,3.46-8.49-4.93-16.91-13.39-13.06Z"/>
      </g>
      <g>
        <path class="cls-6" d="M18.11,16.19c.06.1,1.64,1.04,1.94,1.28,6.59,5.09,12.31,11.71,15.03,19.7,4.68-1.46,9.48-2.51,14.32-3.32.89-7.56,5.16-15.94,12.56-18.86,12.05-4.75,21.92,7.98,22.78,18.87,4.81.79,9.59,1.82,14.24,3.3.88-1.96,1.65-3.99,2.71-5.87,3.44-6.11,8.85-11.32,14.54-15.31-3.64-4.83-1.88-12.43,3.69-14.96,8.46-3.85,16.85,4.56,13.39,13.06-2.26,5.53-8.95,7.6-14.1,4.71-.37-.21-1.39-1.07-1.57-1.08-.69-.06-4.85,3.44-5.61,4.13-3.88,3.53-7.88,8.44-10,13.25-.23.52-1.21,2.51-.8,2.83.56.43,2.89,1.14,3.74,1.54,7.43,3.45,13.35,8.39,18,15.15,7.49,10.89,6.77,26.84,6.3,39.56-.61,16.29-4.97,31.75-22.57,35.99-6.93,1.67-14.17,2.1-21.23,2.2-12.18.17-24.62.17-36.8,0-9.15-.13-21.19-.82-29.38-5.26-11.44-6.19-14.25-22.58-14.58-34.42-.23-8.36-.29-17.68,1.37-25.86,2.49-12.3,11.84-22.12,22.99-27.32.88-.41,3.29-1.15,3.85-1.59.41-.32-.57-2.31-.8-2.83-3.06-6.93-9.17-13.28-15.46-17.38-.41-.04-.96.64-1.4.9C5.15,24.5-4.68,12.05,2.41,3.59s20.8-.46,16.79,10.19c-.18.49-1.25,2.13-1.09,2.41Z"/>
        <path class="cls-31" d="M95.62,39.63c6.99,4.23,14.41,9.19,20.1,15.23s8.56,13.13,10.25,21.06c.56,6.93.56,15.22,0,22.19-.26,3.22-1,6.34-1.65,9.49-.88-.38-1.62-1.01-2.55-1.33-3.19-1.1-8.13-.91-11.14.67l-.75.13c-5.49-.5-11.2-.76-16.57-.96-3.15-.03-6.95-.94-10.17-1.3-4.2-.47-9.37-1.27-13.51-1.18-.34,0-1.89.4-1.89-.07V35.84c9.44-.09,18.83,1.21,27.88,3.79Z"/>
        <path class="cls-31" d="M64.28,35.84l.31.2c.5,6.56,1.02,13.1,1.59,19.62l.25.64v24.41c-.04.22-.08.39-.17.2.06,3.92-.27,7.81-.98,11.67l.21.12c-.17,1.81-.3,3.62-.4,5.43l-.3.22c-.06,1.42-.14,2.86-.25,4.32.15.42.07.74-.24.96-7.47-.04-18.21,1.58-25.73,2.8-4.55.05-8.99.39-13.49,1.26l-.69-.27c-2.83-1.8-6.97-2.21-10.23-1.65-.85.16-.93.12-1.41-.52-1.57-2.11-3.02-7.9-3.41-10.58-1.67-11.63,1.83-24.47,8.24-34.32,6.46-9.93,16.73-18.47,27.75-22.37,6.12-1.24,12.71-2.21,18.97-2.14Z"/>
        <path class="cls-31" d="M28.64,122.12c1.73-3.93,1.21-8.27-1.32-11.71,6.98-1.95,14.19-3.04,21.38-3.94,11.39-1.43,21-1.77,32.46-.49,8.63.96,17.3,2.14,25.67,4.44-1.59,2.29-2.5,4.84-2.32,7.67.04.68.3,2.25.5,2.88-.03.12-.06.24-.11.35-.47.97-6.03,3.12-7.29,3.53-5.19,1.69-10.72,1.98-16.07,1.89-1.31.26-2.62.58-3.91.94-.77.24-2.78.41-1.65-.44l.06-.37c1.73-.76,5.38-2.5,6.02-4.35.96-2.82.93-6.3-.52-8.96-2.6-4.75-11.09-4.99-15.88-4.95-6.85.06-14.48,1.8-14.22,10.16.18,5.77,3.67,7.01,8.4,8.41l.15.39c.65.26.5.65-.17.67-5.78-.99-11.62-1.66-17.52-2.02-3.67-.31-7.22-.97-10.74-2-.65-.19-2.06-.65-2.59-1.02s-.53-.41-.33-1.07Z"/>
        <path class="cls-31" d="M45.31,37.99c-.95.9-2.2,1.02-3.31,1.56-16.71,8.14-29.38,23.22-32.14,41.93-.92,6.22-1.02,10.06.39,16.23.42,1.84,1.88,6.46,3.07,7.82.27.3.42.31.81.27-.51.09-1.48.39-1.98.58-.83.32-1.5.91-2.31,1.23-.34-2.2-1-4.33-1.3-6.54-.53-3.94-.43-7.74-.51-11.7-.24-11.1-.59-23.72,6.06-33.19,7.88-11.21,18.15-15.55,31.21-18.19Z"/>
        <path class="cls-31" d="M105.02,120.96c.58,1.84,2.13,3.91,3.46,5.28-2,.52-4.03,1.07-6.07,1.44-8.94,1.61-18.15,1.47-27.16,1.54-6.27.05-12.55.06-18.82,0-7.03-.07-14.22-.05-21.25-1.02-3.21-.44-6.39-1.08-9.51-1.96,1.16-1.21,2.28-2.57,2.97-4.12-.11.65.69.87,1.16,1.07,6.5,2.83,16.84,2.88,24,3.72,1.94.23,3.99.81,5.95.99.42.04.52.07.24-.33l.51-.2c4.77,1.06,10.01.84,14.79-.27l.71.14-.25.33c1.89.03,4.02-.95,5.77-1.16,1.25-.15,2.83.08,4.14.01,5.44-.29,10.05-.88,15.03-3.11,1.5-.67,3.01-1.38,4.34-2.34Z"/>
        <path class="cls-26" d="M14.79,118.49l-.15-.49.94-1.65c1.14-2.12-.98-2.5-1.47-.29-.22.39-.45.67-.8.29-.53-.93-1.16-2.15-1.56-3.14-.18-.43-1.02-2.79-1.01-3.05.06-1.53,4.58-2.5,5.78-2.56,8-.43,13.77,7.34,9.68,14.63-.46.81-2.31,3.17-3.33,2.96-.62-.13-3.21-1.66-3.84-2.11-1.84-1.3-2.96-2.79-4.24-4.59Z"/>
        <path class="cls-31" d="M123.63,2.07c10.59-.74,11.4,15.42,1.1,16.11s-11.46-15.39-1.1-16.11Z"/>
        <path class="cls-26" d="M121.68,114.69l-.4.07c-.91-1.05-1.96-1.84-3.15-2.38-1.47,1.04,1.76,2.85,2.71,3.16l.19.3c-1.82,3.12-5.23,6.83-8.43,8.65-1.51.86-1.75.96-3.12-.31-6.23-5.78-1.7-16.01,6.52-16.58,1.61-.11,6.99.51,7.42,2.45.13.58-1.38,3.91-1.74,4.64Z"/>
        <path class="cls-5" d="M71.2,16.87c2.01,1.94,3.05,4.76,3.69,7.52.19.84.78,3.63.48,4.22-.05.11-.13.2-.21.3-1.03-.12-2.77-.33-3.71-.33h-4.04c.06-.41-.1-1.02.02-1.38.1-.29.67-.32.96-.52,2.28-1.59.59-5.61-2.3-4.45-1.99.8-2.01,3.55-.23,4.52.19.11.68.17.7.2.12.13-.04,1.32.02,1.63-2.92.01-6.02.07-8.91.49-.05-.16-.09-.31-.1-.47-.13-1.25,1.69-4.99,2.39-6.29,1.15-2.14,2.63-4.61,4.64-5.94,2.73-.7,3.97-.53,6.6.49Z"/>
        <path class="cls-26" d="M17.92,10.11l-.16.41c-2.66,1.22-5.3,1.64-8.24,1.82-2,.27-4,.98-5.15,2.74l-.47.14C-.85,9.42,4.21.72,11.55,2.21c3.54.72,6.37,4.32,6.37,7.9Z"/>
        <path class="cls-31" d="M125.97,75.93c-1.56-4.57-2.87-9.29-5.14-13.59-4.83-9.17-16.21-16.59-24.67-22.18-.23-.15-.45-.24-.55-.52,9.48,2.7,16.28,6.44,22.6,14.11,5.8,7.05,7.03,13.24,7.76,22.18Z"/>
        <path class="cls-31" d="M17.92,10.11c.01,7.3-9.21,10.99-14.02,5.11,2.13-3.65,6.61-3.17,10.23-3.71l3.79-1.4Z"/>
        <path class="cls-5" d="M76.98,20.99c1.47,2.04,1.85,4.79,2.15,7.24.18,1.03-.1,1.42-.83,1.17-1.02-.19-2.11-.37-3.13-.49-.13-3.31-1.03-7.19-2.74-10.05-.41-.68-1.17-1.17-1.22-1.99,1.51.59,5.16,2.65,5.77,4.12Z"/>
        <path class="cls-5" d="M64.61,16.38c-3.33,3.64-5.7,7.9-6.93,12.7-.59.09-1.22.22-1.81.33-.3.09-.53.05-.67-.11-.46-.45,1.55-7.91,2.49-8.8,2.07-2.11,3.92-3.36,6.93-4.12Z"/>
        <path class="cls-11" d="M75,31.06c.27.06.19,1.64.1,1.64l-3.4-.16c-4.87.03-10.09.43-14.85.33l-1.56.06c-.22-.71-.26-1.2.57-1.38,6.27-1.21,12.89-1.33,19.14-.49Z"/>
        <path class="cls-31" d="M66.42,35.84v20.46c-.27-.12-.44-.27-.49-.58-.16-.9-.23-2.17-.33-3.13-.55-5.06-.88-10.12-1.15-15.18-.03-.52-.25-1.02-.17-1.56.71,0,1.43,0,2.14,0Z"/>
        <path class="cls-31" d="M110.63,106.94c-1.11.58-2,1.57-3.02,2.27-2.24-.58-4.45-1.21-6.71-1.7-2.52-.54-5.07-.91-7.59-1.4.75,0,1.42-.17,2.06-.17,5.1-.03,10.21.39,15.27,1Z"/>
        <path class="cls-31" d="M66.42,80.71v22.93c-.66.33-1.38,0-2.14,0,.04-1.75.01-3.59.49-5.28.42-.27.61.27.66.66-.04-2.09-.02-4.17.07-6.25l-.24-.19c.29-3.77.51-7.54.83-11.31.03-.31-.19-.66.33-.57Z"/>
        <path class="cls-5" d="M57.68,20.5c-.76,2.74-1.99,5.45-2.15,8.33-.02.31-.14.67.34.58-1.06.2-2.16.66-3.23.81-.27.04-.44.12-.39-.23.16-1.32,1.58-4.25,2.28-5.48.96-1.69,1.83-2.65,3.16-4.01Z"/>
        <path class="cls-31" d="M38.54,106.44c-4.04.66-8.04,1.75-12,2.77-.23,0-1.76-1.5-2.19-1.78,2.31-.17,4.54-.78,6.85-.99.84-.07,1.95-.15,2.79-.17,1.48-.05,3.09-.05,4.54.17Z"/>
        <path class="cls-5" d="M76.98,20.99c1.07.93,1.97,2.28,2.67,3.52s2.13,4.12,2.27,5.48c.04.36-.12.24-.39.22-1.04-.08-2.2-.62-3.23-.81.56.02.47.11.5-.41.12-2.1-1-6.02-1.82-8Z"/>
        <path class="cls-17" d="M75,31.06c2.09.28,4.48.49,6.47,1.2.74.27,1.24.33,1.29,1.27l-11.05-.99c1.1,0,2.2,0,3.3,0-.23-.46-.26-1.02,0-1.48Z"/>
        <path class="cls-1" d="M66.42,103.64c0-7.64,0-15.29,0-22.93,0-8.14,0-16.28,0-24.41v-20.46,67.8Z"/>
        <path class="cls-14" d="M121.68,114.69c-.2.41-.43.76-.66,1.15-.77.33-3.45-1.95-3.6-2.43s.06-1.21.58-1.34c.88-.23,3.02,2.01,3.67,2.61Z"/>
        <path class="cls-29" d="M66.54,23.01c2.48-.75,2.8,3.57.17,3.07-1.71-.33-1.47-2.67-.17-3.07Z"/>
        <path class="cls-14" d="M14.79,118.49c-.5-.7-1.05-1.4-1.48-2.14.62-.1.71-1.19,1.08-1.64.56-.68,1.43-.65,1.81.16.44.97-1.1,2.67-1.4,3.62Z"/>
        <path class="cls-20" d="M55.86,31.55c-.56.24-.28.85-.33,1.32.44,0,.88,0,1.32,0l-5.44.66s.12-.6.19-.71c.44-.64,3.38-1.1,4.26-1.27Z"/>
        <path class="cls-6" d="M89.15,81.58c7.29-.69,14.18,6.52,10.67,13.64-2.6,5.29-9.51,3.53-14.1,2.23-8.35-2.35-3.28-15.24,3.43-15.87Z"/>
        <path class="cls-15" d="M91.96,75.81c3.4-.19,7.78,1.55,10.34,3.75,2.07,1.77,6.17,7.08,5.28,9.91-.29.93-1.01.8-1.57,1.07-.3.14-.46.61-.95.71-1.74.36-1.62-1.92-1.91-2.97-.76-2.77-2.97-5-5.25-6.63-3.42-2.44-6.66-3.26-10.65-1.45-1.02.46-1.71,2.06-2.95,1.36-1.45-.82-.09-2.36.76-3.05,1.24-.99,5.32-2.6,6.88-2.69Z"/>
        <path class="cls-21" d="M92.11,52.86c.67-.2,2.99.54,3.67.88,1.1.55,2.68,1.9,3.37,2.9.41.59,2.24,3.79.51,3.63-.67-.06-1.37-2.2-1.91-2.89-.65-.83-2.08-2-3.04-2.4-.68-.28-2.47-.5-2.82-.81-.4-.36-.34-1.14.21-1.3Z"/>
        <path class="cls-23" d="M115.26,102.14c.51.37,3.88-2.59,4.57-2.92s1.15.23.62.79c-1.02.55-4.17,3.32-5.12,3.31-.42,0-.5-.16-.71-.45-.4-.54-1.55-3.8-1.76-3.85-.7.41-1.35.97-1.97,1.49-.47.39-2.38,2.49-2.89,2.14-.02-.01-.11-.36-.1-.41.05-.64,4.46-4.39,5.11-4.33.37.03.62.4.8.67.41.61,1.19,3.37,1.47,3.57Z"/>
        <path class="cls-3" d="M69.84,76.11c.98-.14,1.4,1.78.13,1.78-1.06,0-1.18-1.63-.13-1.78Z"/>
        <path class="cls-2" d="M69.6,47.68c-1.08-1.07,1.37-2.31,1.46-.7.05.93-.95,1.21-1.46.7Z"/>
        <path class="cls-6" d="M43.95,81.26c7.11-.43,12.36,11.9,6.03,15.26-1.48.79-7.81,1.99-9.56,2-5.83.02-8.16-5.81-6.28-10.75,1.68-4.44,5.21-6.23,9.82-6.51Z"/>
        <path class="cls-15" d="M40.49,75.81c2.08-.06,5.58,1.3,7.27,2.53.81.58,1.84,1.57.69,2.47-1.03.81-1.93-.34-2.79-.7-1.57-.67-3.15-1.04-4.88-.86-4.14.44-9.72,5.15-10.78,9.18-.23.88-.04,1.92-.79,2.51-.99.77-1.32,0-2.08-.4-.55-.29-1.23-.14-1.43-1.04-.66-2.94,2.61-7.53,4.66-9.45,2.54-2.38,6.63-4.15,10.12-4.24Z"/>
        <path class="cls-21" d="M41.65,53.53c.91-.07,1.57.77.85,1.36-.35.29-1.73.4-2.35.62-1.29.47-2.83,1.69-3.65,2.78-.53.7-1.17,2.82-1.97,2.75-1.62-.13.39-3.38.88-4,1.33-1.69,4.07-3.36,6.23-3.52Z"/>
        <path class="cls-24" d="M26.17,102.65c-.11.08-.5,0-.65-.08-1.09-.93-2.09-2-3.22-2.88-.18-.14-.92-.77-1.07-.66l-1.73,4.13c-.65.66-3.04-1.12-3.7-1.59-.45-.32-1.79-1.24-2.08-1.55-.47-.51-.09-1.07.42-.93.72.2,3,2.36,4.06,2.88.2.1.37.22.61.21.77-.75,1.25-4.37,2.47-4.27.66.06,4.52,3.38,4.88,4.03.11.19.14.62,0,.71Z"/>
        <path class="cls-31" d="M65.27,92.59l.49-.25v10.64s-.99,0-.99,0c-.12-.66.14-1.27.17-1.89.01-.29-.21-.62-.17-.98.03-.34.35-.61.34-1.01s-.32-.6-.34-.74c-.21-1.23.38-4.32.49-5.77Z"/>
        <path class="cls-10" d="M64.57,46.44c1.08,1.07-1.37,2.31-1.46.7-.05-.93.95-1.21,1.46-.7Z"/>
        <path class="cls-18" d="M63.66,77.7c-.64-.66.19-2.16,1.11-1.35s-.44,2.03-1.11,1.35Z"/>
        <path class="cls-19" d="M75.99,127.23c-3.77,1.17-8.49,1.25-12.45.99-1.15-.08-2.44-.33-3.55-.66-1.19-.35-4.6-1.53-5.56-2.11-4.14-2.49-4.22-9.82-1.29-13.23,1.92-2.23,6.53-3.59,9.4-3.8,5.17-.37,15.09-.42,18.63,3.98,2.11,2.62,2.43,7.59,1.05,10.59-.68,1.48-4.65,3.75-6.23,4.24Z"/>
        <path class="cls-25" d="M18.87,114.88c1.28-.25,1.6,2.48,1.67,3.38.15,2.01-1.72,2.37-2.11.46-.12-.59-.44-2.63-.34-3.11.07-.36.43-.65.78-.72Z"/>
        <path class="cls-25" d="M23.32,113.57c1.48-.42,4.13,3.92,1.61,3.78-.92-.05-3.33-3.29-1.61-3.78Z"/>
        <path class="cls-26" d="M123.29,7.18c3.38-.58,5.02,3.51,2.43,5.4-1.37,1-3.36.58-4.28-.83-1.08-1.65-.12-4.23,1.85-4.57Z"/>
        <path class="cls-25" d="M111.75,115.39c.12.22.05.88,0,1.16-.06.36-.98,3.04-1.13,3.32-.51.88-1.96.61-1.79-.79.03-.21,1.14-3.4,1.24-3.55.37-.56,1.39-.65,1.69-.14Z"/>
        <path class="cls-25" d="M114.7,114.39c.68-.23,1.18,0,1.46.63.15.35.76,2.41.76,2.72,0,.82-.74,1.37-1.51.99-.41-.2-1.63-4.03-.71-4.35Z"/>
        <path class="cls-4" d="M7.16,3.54c.44-.05.87.08,1.07.5.66,1.41-.85,1.77-1.61,2.6-.82.89-1.05,2.7-2.55,2.06-1.89-.81,1.44-4.98,3.09-5.16Z"/>
        <path class="cls-28" d="M3.69,9.8c1.52-.27,1.49,2,.28,2.12s-1.58-1.89-.28-2.12Z"/>
        <path class="cls-9" d="M87.04,93.25c.28.04.67.45.99.58,1.04.41,2.33.32,3.3-.25h.6s4.04,2.01,4.04,2.01c.35.23.1.44-.19.62-1.75.61-4.31.11-6.14-.21-1.67-.3-4.15-.63-5.24-1.93.18-.66,2.17-1.48,2.64-.82Z"/>
        <path class="cls-27" d="M95.78,96.22c.31-.46.12-.25-.16-.41-1.4-.79-2.94-1.34-4.29-2.23.63-.37,1.21-1.27,1.73-1.77.35-.03,4.11,1.94,4.39,2.34.49.7-1.02,1.85-1.66,2.07Z"/>
        <path class="cls-22" d="M93.03,85.22c1.01-1.1,3.72.97,3.9,2.02.22,1.23-.72,2.04-1.9,1.57-.19-.08-1.77-1.44-1.97-1.66-.5-.54-.52-1.39-.03-1.93Z"/>
        <path class="cls-30" d="M84.4,94.07c-.56-.67-1.09-2.01-.8-2.86.13-.39,2.11-.44,2.61-.43.02.91.42,1.69.83,2.47-.69-.11-1.95.59-2.64.82Z"/>
        <path class="cls-9" d="M46.3,92.42l.56-.63c.51.02,3.39.55,3.48.71l-.08.41c-.71,1.81-2.52,2.03-4.25,2.43-2.09.48-5.89,1.28-7.79.38-.08-.1-.19-.26-.14-.33.34-.46,2.47-2.59,2.92-2.58l.35.27c.35,0,.86.38,1.28.46,1.67.29,2.38-.39,3.67-1.12Z"/>
        <path class="cls-16" d="M38.21,95.72c-.73-.35-2.44-1.87-1.74-2.64.24-.26,3.35-1.98,3.63-1.98l1.24,1.98c-.52,0-.96.59-1.4.83l-1.74,1.81Z"/>
        <path class="cls-12" d="M50.25,92.92c.06-.54-.11-.19-.38-.23-.88-.12-2.12-.52-2.89-.56-.39-.02-.43.15-.69.3.5-.91.8-1.7.98-2.73.19-.14,3.15.11,3.24.25.18,1,.11,2.03-.26,2.98Z"/>
        <path class="cls-22" d="M44.27,83.72c1.34-.31,3.61.76,2.69,2.37-.8,1.41-3.71.31-3.63-1.15.03-.46.46-1.11.94-1.21Z"/>
        <path class="cls-13" d="M75.49,124.75c-4.33.61-8.96.72-13.21-.63-1.27-.4-8.34-4.93-8.78-5.98-.11-.27-.08-.56.05-.82.34-1.92.37-2.94,2.07-4.29,4.41-3.51,18.11-3.48,22.67-.24,2.88,2.05,3.19,6.32,1.16,9.06-1.13,1.53-2.32,2.17-3.96,2.89Z"/>
        <path class="cls-8" d="M75.49,124.75c-5.29,2.31-14.28,2.06-19.29-1.09-1.9-1.19-3.11-3.32-3-5.59.02-.47.33-.71.34-.75-.02.6.73,1.21,1.16,1.56,1.35,1.1,6.21,4.46,7.75,4.95,2.11.68,6.09,1.09,8.31,1.06,1.51-.02,3.23-.61,4.72-.15Z"/>
      </g>
    </g>
  </g>
</svg>