<svg xmlns="http://www.w3.org/2000/svg" version="1.1" xmlns:xlink="http://www.w3.org/1999/xlink" width="112.2" height="117.01"><svg id="SvgjsSvg1147" data-name="Layer 2" xmlns="http://www.w3.org/2000/svg" viewBox="0 0 112.2 117.01">
  <defs>
    <style>
      .cls-1 {
        fill: #fafdfd;
      }

      .cls-2 {
        fill: #ad9ca4;
      }

      .cls-3 {
        fill: #f3736b;
      }

      .cls-4 {
        fill: #92a2af;
      }

      .cls-5 {
        fill: #fff;
      }

      .cls-6 {
        fill: #73c9dc;
      }

      .cls-7 {
        fill: #93a5ae;
      }

      .cls-8 {
        fill: #f2716b;
      }

      .cls-9 {
        fill: #f2726b;
      }

      .cls-10 {
        fill: #bf8d90;
      }
    </style>
  </defs>
  <g id="SvgjsG1146" data-name="Layer 1">
    <g id="SvgjsG1145" data-name="9Z5ThK.tif">
      <g>
        <path class="cls-6" d="M15.65,14.89c1.08,1.17,2.24,2.11,3.29,3.41,3.83,4.75,6.26,10.36,8.04,16.16,8.76-2.58,17.95-2.55,27.02-2.63,7.72-.07,15.55-.18,23.25.9,2.73.38,5.4,1.11,8.13,1.49l.32-.35c1.63-6.2,4.6-12.07,8.84-16.88.67-.76,1.49-1.38,2.19-2.09.8-.26,2.66,1.47,1.76,2.2l-.3.95c-4.33,4.8-7.91,10.78-9.18,16.99,15.08,4.81,22.38,19.88,22.87,34.6-.47,6.87.62,14.56,0,21.33-2.34,25.3-30.48,25.5-49.99,25.93-14.73.33-39.88.63-52.15-8.25C.47,101.93-.22,89.11.04,78.53c.38-15.46,3.49-32.88,18.32-40.81,1.76-.94,3.65-1.57,5.4-2.52-.98-4.81-3.15-9.52-6.04-13.47-1.09-1.49-2.77-3.55-4.05-4.86-.62-.46,1.47-2.51,1.98-1.98Z"></path>
        <path class="cls-6" d="M73.22,29.84c-3.11-.07-6.23-.13-9.35-.21-7.88-.22-15.83-.37-23.72.21-.34.03-.65.2-.99.22-.13-11.7,10.89-20.01,22.19-16.6,6.9,2.08,12.09,9.15,11.87,16.38Z"></path>
        <path class="cls-4" d="M99.36,16.42c-.25.21-.66.44-.88.66.18-1.14-.98-1.66-1.76-2.2.16-.17.28-.47.44-.66.27.33,1.88,1.94,2.2,2.2Z"></path>
        <path class="cls-7" d="M15.65,14.89c-.79.38-1.74,1.13-1.98,1.98-.16-.16-.47-.28-.66-.44.35-.28,1.91-1.85,2.2-2.2.16.2.27.48.44.66Z"></path>
        <path class="cls-5" d="M19.61,91.84l-.6.05c-4.16-3.13-10.04-3.7-14.31-.68l-.47-.03c-.27.63-.5.35-.66-.22-.89-14.08-1.05-33.72,8.9-44.86,10.12-11.33,27.75-10.93,41.75-11.43,1.02.2.34,1.67.32,2.52-.29,10.14.08,20.55,0,30.78-.05,5.61-.04,11.25.13,16.84l-.45.21c-11.37.04-23.1,2.35-33.73,6.26-.34.12-.73.14-.87.56Z"></path>
        <path class="cls-5" d="M108.81,91.18c-.51.12-1.09-.17-1.76-.88l-.67.15c-3.85-1.83-8.7-1.8-12.02,1.11l-.7.06c-.67.58-1.03.58-1.1,0-.39-.13-.93-.49-1.43-.66-10.59-3.71-22.03-5.98-33.29-5.93v-50.35c15.45.43,34.75.06,44.39,14.4,7.17,10.66,7.89,29.64,6.59,42.11Z"></path>
        <path class="cls-5" d="M91.01,94.04c.21.09.21.31,0,.66l.08.69c-2.6,4.3-.91,9.47,2.31,12.93l.03.67c.66.04.81.26.44.66-10.1,3.42-19.42,3.84-30,4.17-15.08.47-30.05.18-44.7-3.73-1.03-.26-1.73-.77-.22-.88l.15-.75c3.7-3.63,4.52-9.11,1.98-13.65l.07-.77c3.03-.68,5.91-1.83,8.92-2.62,13.69-3.59,28.32-4.4,42.32-2.15,6.37,1.02,12.53,2.75,18.63,4.77Z"></path>
        <path class="cls-9" d="M19.61,91.84c.14.13,1.36,1.9,1.54,2.2,3.13,5.21,2.2,11.11-2.2,15.17-1.63.38-3.81-.76-5.31-1.59-4.97-2.75-7.98-7.19-9.25-12.59-.23-.96-.63-2.73-.5-3.67.01-.08.15-.13.33-.18.25-1.03,4.59-2.29,5.63-2.39,3-.3,7.55.92,9.75,3.05Z"></path>
        <path class="cls-10" d="M108.81,91.18c-1.06,10.09-5.65,15.32-14.94,18.47-.16-.19-.28-.49-.44-.66l.34-.46c7.88-1.56,13.47-9.15,13.9-17.01-.6-.34-.8-.75-.61-1.22.57.3,1.15.64,1.76.88Z"></path>
        <path class="cls-2" d="M93.65,91.62l.08.55-2.18,2.53h-.54c.03-.2-.05-.49,0-.66.19-.65,1.56-1.53,1.54-2.42.39.12.71.15,1.1,0Z"></path>
        <path class="cls-6" d="M34.29,63.53c12.1-.59,12.63,18.26.15,18.19-11.05-.06-11.9-17.62-.15-18.19Z"></path>
        <path class="cls-3" d="M107.05,90.3c.87,1.14,1.29.58,1.04,2.25-.82,5.43-3.62,10.91-8.31,13.89-1.75,1.11-4.3,2.52-6.35,2.55-3.68-3.75-5.67-9.49-2.42-14.29.43-.64,2.05-2.5,2.64-3.08,3.58-3.55,9.17-3.54,13.4-1.32Z"></path>
        <path class="cls-6" d="M77.13,63.54c11.68-.82,12.96,16.67,2.11,17.94-13.05,1.53-13.94-17.11-2.11-17.94Z"></path>
        <path class="cls-8" d="M54.06,90.8c4.99-.43,13.54.95,15.31,6.53,2.36,7.46-9.63,10.31-14.94,9.89-15.13-1.21-15.4-15.13-.38-16.42Z"></path>
        <path class="cls-1" d="M37.35,66.16c2.66-.37,4.04,3.43,1.45,4.77-3.37,1.74-5.45-4.21-1.45-4.77Z"></path>
        <path class="cls-1" d="M80.19,66.16c3.21-.62,4.31,4.34,1.21,4.96-3.61.73-4.31-4.37-1.21-4.96Z"></path>
        <circle class="cls-8" cx="9.94" cy="8.92" r="8.92"></circle>
        <circle class="cls-8" cx="103.28" cy="8.92" r="8.92"></circle>
      </g>
    </g>
  </g>
</svg><style>@media (prefers-color-scheme: light) { :root { filter: none; } }
@media (prefers-color-scheme: dark) { :root { filter: none; } }
</style></svg>